<?xml version="1.0" standalone="no"?><!DOCTYPE svg PUBLIC "-//W3C//DTD SVG 1.1//EN" "http://www.w3.org/Graphics/SVG/1.1/DTD/svg11.dtd"><svg t="1524837184555" class="icon" style="" viewBox="0 0 1024 1024" version="1.1" xmlns="http://www.w3.org/2000/svg" p-id="2715" xmlns:xlink="http://www.w3.org/1999/xlink" width="200" height="200"><defs><style type="text/css"></style></defs><path d="M392.124 802.032h-118.773v67.039h185.682l-64.341-64.337zM371.187 644.087h-212.77v-425.622h651.072v158.318l46.002-32.854 49.667 49.664v-266.941h-842.411v618.95h308.439zM961.252 695.833v-99.176l-75.734-12.61c-3.080-9.353-6.835-18.401-11.189-27.092l44.623-62.442-70.12-70.117-62.366 44.541c-8.723-4.42-17.834-8.191-27.253-11.287l-12.61-75.6h-99.184l-12.578 75.567c-9.42 3.096-18.498 6.901-27.222 11.287l-62.364-44.541-70.105 70.102 44.606 62.457c-4.353 8.691-8.113 17.738-11.189 27.092l-75.767 12.677v99.176l75.927 12.643c3.082 9.289 6.805 18.24 11.176 26.851l-44.752 62.7 70.105 70.101 62.797-44.847c8.548 4.307 17.498 8.032 26.723 11.063l12.677 76.1h99.183l12.69-76.1c9.208-3.031 18.127-6.725 26.708-11.063l62.797 44.864 70.12-70.117-44.77-62.683c4.374-8.628 8.098-17.579 11.178-26.851l75.894-12.693zM697.025 725.191c-43.606 0-78.93-35.322-78.93-78.928 0-43.609 35.323-78.929 78.93-78.929 43.608 0 78.932 35.319 78.932 78.929 0 43.606-35.324 78.928-78.932 78.928z" p-id="2716"></path></svg>