<?xml version="1.0" standalone="no"?><!DOCTYPE svg PUBLIC "-//W3C//DTD SVG 1.1//EN" "http://www.w3.org/Graphics/SVG/1.1/DTD/svg11.dtd"><svg t="1524837713032" class="icon" style="" viewBox="0 0 1024 1024" version="1.1" xmlns="http://www.w3.org/2000/svg" p-id="6319" xmlns:xlink="http://www.w3.org/1999/xlink" width="200" height="200"><defs><style type="text/css"></style></defs><path d="M863.6416 628.9792c51.0464-61.3376 33.8752-77.1776 2.0224-109.3056-24.7872-24.9984-45.0176-46.848-107.7184 2.7392L863.6416 628.9792 863.6416 628.9792zM863.6416 628.9792M726.5984 549.8752c-5.3824 5.1136-10.976 10.5984-16.896 16.5312-1.12 1.1456-165.6064 167.0208-165.6064 167.0208-23.3344 22.0864-62.1312 146.1504-48.7296 159.6608 13.3888 13.4912 135.1808-22.848 157.7536-48.6016 0 0 164.8704-166.24 166.1888-167.5584 5.8816-5.9392 11.36-11.584 16.48-16.9472L726.5984 549.8752 726.5984 549.8752zM726.5984 549.8752M534.016 710.5472 534.016 337.1008c37.4336-50.4 135.5904-81.312 210.0288-81.312l0 195.0208 1.024 0.7936c20.576-10.1056 50.144-17.664 86.176-7.7696C831.1616 299.2768 831.072 128 831.072 128s-254.1504 11.3152-351.2512 117.2928C382.7136 139.3152 128.5696 128 128.5696 128s-0.352 513.0752-0.352 554.624c0 89.2992 78.1184 85.3376 78.1184 85.3376 78.1184 10.6752 136.7104 32.0256 136.7104 32.0256S439.84 837.1136 460.3072 896l11.9168 0C466.2336 857.4592 467.8976 786.0224 534.016 710.5472zM425.6192 725.504c-76.0384-52.7744-193.5104-63.232-193.5104-63.232s-16.5248 0-16.5248-18.08L215.584 255.7888c74.4384 0 172.608 30.912 210.0288 81.312L425.6128 725.504z" p-id="6320"></path></svg>