<?xml version="1.0" standalone="no"?><!DOCTYPE svg PUBLIC "-//W3C//DTD SVG 1.1//EN" "http://www.w3.org/Graphics/SVG/1.1/DTD/svg11.dtd"><svg t="1524126911244" class="icon" style="" viewBox="0 0 1024 1024" version="1.1" xmlns="http://www.w3.org/2000/svg" p-id="15135" xmlns:xlink="http://www.w3.org/1999/xlink" width="200" height="200"><defs><style type="text/css"></style></defs><path d="M336.634993 611.027387c-78.524424 0-142.152581 63.627133-142.152581 142.153604s63.627133 142.153604 142.152581 142.153604c78.525448 0 142.153604-63.627133 142.153604-142.153604S415.160441 611.027387 336.634993 611.027387zM408.953066 768.287037l-78.007655 78.006632c-8.380878 8.380878-21.934568 8.380878-30.210046 0-8.379854-8.378831-8.379854-21.932522 0-30.211069l62.902632-62.902632-62.902632-62.902632c-8.379854-8.379854-8.379854-21.933545 0-30.211069 8.379854-8.378831 21.933545-8.378831 30.210046 0l78.007655 78.008678C417.33292 746.456846 417.33292 759.90616 408.953066 768.287037zM669.173692 199.852724 634.16741 199.852724c-19.235087 0-34.958186-15.767102-34.958186-34.95614 0-19.23918-15.768125-34.960233-35.004235-34.960233l-69.872371 0c-19.23611 0-34.958186 15.721053-34.958186 34.960233 0 19.23611-15.724123 34.95614-34.960233 34.95614L389.413034 199.852724c-19.23918 0-34.960233 15.724123-34.960233 34.960233l0 34.960233c0 19.23611 15.721053 34.95614 34.960233 34.95614l279.761682 0c19.237133 0 34.960233-15.721053 34.960233-34.95614l0-34.960233C704.133925 215.57787 688.410825 199.852724 669.173692 199.852724zM529.246803 234.812957c-19.283182 0-34.958186-15.628956-34.958186-34.960233 0-19.327184 15.675004-34.95614 34.958186-34.95614 19.329231 0 34.958186 15.628956 34.958186 34.95614C564.204989 219.134883 548.577057 234.812957 529.246803 234.812957zM829.686433 269.77319l0 559.526433c0 19.373233-15.7231 35.190477-35.144428 35.190477L459.386712 864.4901c26.715455-29.443589 43.13031-68.403926 43.13031-111.303992 0-91.583858-74.250074-165.889191-165.885098-165.889191-41.163515 0-78.738295 15.081487-107.732653 39.902802L228.89927 269.817192c0-19.421328 15.767102-35.142381 35.142381-35.142381l55.357795 0c0 0.046049 0 0.092098 0 0.138146l0 34.960233c0 38.563294 31.399127 69.962421 69.964468 69.962421l279.762705 0c38.567387 0 69.965491-31.399127 69.965491-69.962421l0-35.006282c0-0.046049 0-0.092098 0-0.138146l55.402821 0C813.916261 234.628762 829.640384 250.395864 829.686433 269.77319z" p-id="15136"></path></svg>